<?xml version="1.0" standalone="no"?>
<!DOCTYPE svg PUBLIC "-//W3C//DTD SVG 20010904//EN"
 "http://www.w3.org/TR/2001/REC-SVG-20010904/DTD/svg10.dtd">
<svg version="1.0" xmlns="http://www.w3.org/2000/svg"
 width="1192.000000pt" height="950.000000pt" viewBox="0 0 1192.000000 950.000000"
 preserveAspectRatio="xMidYMid meet">
<metadata>
Created by potrace 1.10, written by Peter Selinger 2001-2011
</metadata>
<g transform="translate(0.000000,950.000000) scale(0.050000,-0.050000)"
fill="#a53131" stroke="none">
<path d="M8925 18960 c-14 -22 -25 -46 -25 -55 0 -8 9 -2 19 14 14 21 18 12
17 -34 -1 -35 -10 -59 -19 -53 -9 6 -17 1 -17 -11 0 -11 10 -21 22 -21 22 0
18 -49 -11 -130 -12 -32 -10 -34 7 -10 18 26 21 25 22 -5 0 -19 -8 -35 -18
-35 -20 0 -17 -29 7 -84 17 -39 -3 -82 -30 -65 -10 6 -13 -4 -6 -22 10 -26 16
-27 29 -6 12 19 17 19 18 3 0 -13 -10 -30 -22 -37 -16 -10 -14 -19 5 -31 20
-13 20 -17 2 -18 -14 0 -25 -10 -25 -21 0 -12 8 -16 19 -10 33 21 42 -25 11
-56 -19 -19 -23 -35 -10 -43 13 -8 13 -25 0 -51 -16 -30 -15 -36 7 -27 21 8
25 -3 18 -41 -5 -28 -16 -51 -23 -51 -7 0 -15 -18 -17 -40 -1 -22 5 -40 15
-40 19 0 11 -65 -12 -103 -9 -14 -5 -18 8 -9 16 9 22 -9 20 -56 -1 -45 -10
-66 -24 -57 -12 7 -10 -3 5 -21 16 -19 20 -34 10 -34 -10 0 -18 -17 -18 -39 0
-21 7 -34 15 -28 9 5 16 0 16 -12 0 -11 -11 -21 -25 -21 -19 -1 -19 -4 -1 -16
15 -10 17 -26 6 -44 -11 -17 -9 -39 4 -54 15 -19 14 -26 -4 -26 -20 0 -20 -6
0 -30 20 -24 20 -30 -3 -30 -21 -1 -21 -5 3 -20 25 -16 25 -19 1 -20 -21 0
-18 -9 10 -31 22 -18 28 -26 14 -19 -14 7 -25 4 -25 -7 0 -11 11 -24 25 -29
20 -7 19 -18 -2 -54 -15 -25 -19 -51 -10 -58 27 -19 29 -62 3 -62 -19 0 -19
-5 0 -24 13 -13 23 -42 22 -65 -2 -35 -4 -34 -18 9 l-16 50 -2 -55 c-1 -30 7
-55 18 -55 11 0 20 -13 20 -30 0 -16 -9 -30 -20 -30 -11 0 -20 -10 -20 -21 0
-12 11 -15 25 -6 15 8 12 -1 -5 -23 -17 -22 -20 -31 -5 -23 14 9 25 6 25 -6 0
-11 -10 -21 -22 -21 -15 0 -13 -12 5 -34 18 -23 19 -29 2 -19 -14 9 -25 6 -25
-6 0 -11 9 -21 20 -21 11 0 20 -10 20 -21 0 -12 -9 -16 -20 -9 -11 7 -14 -1
-8 -19 7 -17 3 -31 -9 -31 -12 0 -16 -14 -10 -32 10 -25 16 -26 29 -5 13 19
17 14 18 -19 0 -26 -7 -42 -17 -36 -9 6 -16 -3 -16 -19 0 -16 8 -29 18 -29 27
0 9 -126 -24 -160 -24 -26 -24 -31 6 -37 27 -5 30 -13 13 -33 -15 -18 -15 -30
-1 -39 30 -19 26 -56 -4 -39 -20 11 -20 8 -1 -12 20 -21 16 -34 -15 -61 -35
-30 -36 -36 -8 -46 17 -7 26 -4 20 6 -7 10 -3 23 7 30 28 17 8 -107 -22 -146
-23 -29 -22 -30 9 -6 31 25 35 23 31 -25 -3 -28 -12 -52 -20 -52 -9 0 -16 -10
-16 -21 0 -12 9 -16 20 -9 11 7 20 3 20 -9 0 -36 -9 -51 -28 -45 -10 3 -8 -7
6 -23 16 -20 17 -34 3 -42 -12 -8 -21 -22 -21 -33 0 -11 9 -15 20 -8 29 18 23
-14 -10 -58 -16 -21 -23 -48 -15 -59 7 -12 11 -49 9 -82 -3 -46 1 -54 16 -31
17 26 19 25 20 -4 0 -18 -9 -39 -21 -47 -12 -7 -14 -23 -5 -36 21 -29 20 -75
-1 -109 -9 -15 -6 -38 8 -55 18 -22 18 -36 1 -57 -18 -22 -18 -31 2 -40 21
-10 21 -14 1 -24 -14 -6 -19 -22 -11 -35 24 -37 28 -97 6 -83 -11 7 -20 4 -20
-7 0 -11 11 -25 25 -31 20 -10 20 -14 0 -24 -14 -6 -25 -26 -25 -45 1 -28 3
-29 20 -3 15 23 19 14 20 -35 0 -36 -10 -65 -22 -65 -15 0 -13 -12 5 -34 23
-29 23 -31 -3 -16 -27 16 -27 14 0 -19 23 -29 24 -40 5 -46 -18 -6 -19 -19 -5
-45 12 -22 13 -42 2 -49 -20 -12 -18 -39 7 -96 9 -21 5 -48 -9 -65 -20 -24
-20 -30 0 -30 19 0 18 -8 -3 -34 -18 -23 -19 -29 -2 -19 30 18 31 11 5 -57
-13 -35 -13 -48 0 -40 28 17 25 -22 -5 -73 -20 -34 -20 -44 0 -51 14 -5 25
-23 25 -39 0 -16 -7 -25 -17 -19 -9 6 -16 -2 -16 -18 0 -16 7 -24 16 -18 9 6
15 -35 12 -91 -3 -55 -12 -101 -20 -101 -8 0 -15 -10 -15 -21 0 -12 11 -15 25
-6 16 9 14 1 -4 -21 -23 -28 -23 -38 -3 -51 33 -20 32 -42 -1 -63 -17 -11 -18
-18 -4 -18 27 0 50 -76 27 -90 -9 -6 -21 5 -26 25 -7 27 -10 24 -12 -10 -1
-25 8 -45 20 -45 16 0 15 -9 -2 -30 -17 -21 -18 -30 -2 -30 12 0 22 -32 22
-71 0 -39 -7 -67 -16 -62 -9 6 -15 -15 -15 -47 1 -31 7 -53 14 -48 7 4 16 -37
20 -92 6 -80 1 -98 -21 -90 -22 9 -23 5 -4 -18 18 -22 18 -30 -2 -38 -21 -7
-21 -14 -1 -35 27 -29 35 -88 10 -72 -8 5 -13 -19 -12 -54 2 -35 6 -63 8 -63
2 0 6 -20 9 -45 2 -25 -5 -45 -18 -45 -12 0 -8 -9 8 -20 20 -13 22 -19 5 -20
-14 0 -25 -20 -25 -45 1 -36 4 -39 20 -15 16 26 19 25 20 -6 0 -19 -13 -40
-30 -47 -16 -6 -24 -20 -17 -31 8 -13 17 -13 25 1 8 12 15 -16 17 -62 2 -46
-8 -96 -21 -112 -19 -23 -19 -31 1 -38 14 -5 25 -23 25 -42 -1 -29 -3 -29 -22
-3 -23 31 -18 10 14 -70 9 -23 3 -27 -25 -18 -29 9 -31 7 -8 -9 34 -24 45 -78
19 -94 -10 -7 -13 -20 -7 -30 6 -11 2 -19 -10 -19 -11 0 -21 -10 -21 -21 0
-12 9 -16 20 -9 35 22 22 -6 -30 -62 -44 -47 -50 -49 -50 -16 -1 32 -4 33 -20
8 -17 -25 -23 -25 -37 -3 -13 19 -22 21 -32 5 -7 -12 -22 -22 -33 -22 -11 0
-15 9 -8 20 7 11 3 20 -9 20 -11 0 -21 -8 -21 -17 0 -24 -167 -19 -185 6 -9
13 -15 11 -15 -6 0 -23 -6 -23 -31 -2 -17 14 -28 17 -25 7 7 -20 -9 -28 -55
-28 -20 0 -26 9 -16 25 9 16 1 14 -21 -4 -29 -23 -43 -24 -76 -3 -31 19 -37
20 -25 0 11 -17 6 -21 -17 -12 -18 7 -38 3 -45 -8 -8 -12 -25 -6 -42 16 -17
20 -25 27 -20 15 7 -14 -430 -20 -1398 -20 -775 1 -1409 -6 -1409 -15 0 -8
-17 -6 -39 5 -21 12 -54 15 -73 8 -26 -11 -30 -7 -17 15 13 23 11 23 -13 4
-18 -15 -40 -17 -58 -6 -15 9 -38 11 -49 4 -49 -32 -1189 -18 -1198 15 -7 28
-9 28 -11 0 -2 -26 -53 -30 -372 -28 -204 2 -370 -4 -370 -12 0 -9 -18 -11
-40 -5 -23 6 -34 20 -26 33 9 15 3 14 -16 -1 -17 -14 -55 -20 -86 -15 -35 7
-51 3 -42 -10 7 -12 3 -21 -9 -21 -11 0 -21 8 -21 17 0 9 -13 16 -30 16 -16 0
-30 -8 -30 -19 0 -10 -15 -7 -33 9 -18 15 -36 24 -40 21 -21 -21 -126 -39
-115 -20 8 12 2 17 -14 11 -15 -5 -45 -1 -65 10 -21 10 -33 11 -27 2 9 -15
-1514 -21 -1546 -7 -5 3 -19 3 -30 0 -57 -14 -247 -11 -238 3 5 9 -4 11 -21 5
-17 -7 -31 -21 -31 -31 0 -11 -11 -12 -25 -3 -30 19 -315 23 -315 4 0 -21 -68
-11 -85 12 -9 13 -15 11 -15 -4 0 -16 -18 -18 -60 -6 -34 10 -64 9 -70 -1 -6
-9 -24 -12 -41 -6 -16 6 -29 1 -29 -11 0 -16 1223 -22 4500 -22 l4500 0 0
3590 c0 3718 1 3672 -75 3550z"/>
<path d="M6030 18376 c-456 -40 -841 -224 -1195 -573 -161 -158 -172 -174
-130 -185 44 -12 135 60 135 106 0 10 7 14 16 8 20 -12 84 58 84 90 0 12 14
17 30 11 19 -7 30 0 30 19 0 17 9 25 19 19 11 -7 34 11 53 39 18 28 38 47 43
42 5 -5 20 -1 32 10 116 97 148 118 178 118 19 0 35 11 35 23 0 13 6 18 13 10
8 -7 29 1 48 18 19 17 42 29 51 26 33 -9 109 26 97 44 -10 17 51 29 99 20 10
-1 32 3 50 11 41 18 80 27 138 33 25 3 54 19 64 35 11 17 20 20 20 8 0 -25
160 -27 160 -3 0 9 28 11 62 5 37 -7 75 -1 94 14 24 20 28 20 17 1 -11 -17 2
-26 41 -27 136 -5 164 -9 178 -23 8 -8 24 -15 36 -15 12 0 9 10 -8 22 -24 18
-22 19 10 8 100 -35 157 -48 171 -39 9 5 22 0 29 -11 7 -11 21 -15 31 -9 11 6
19 1 19 -12 0 -13 12 -18 28 -13 15 6 48 -3 73 -21 25 -18 40 -22 32 -10 -9
14 3 14 37 -2 27 -13 50 -30 50 -38 0 -8 17 -15 39 -15 21 0 52 -14 69 -31 18
-17 41 -26 52 -19 11 7 20 -3 20 -22 0 -19 6 -29 14 -21 7 7 35 -7 63 -32 27
-25 43 -31 35 -15 -7 17 1 10 20 -15 18 -25 52 -45 75 -45 31 -1 36 -5 17 -17
-19 -12 -10 -24 35 -42 33 -14 61 -33 61 -43 0 -9 38 -53 85 -98 47 -45 85
-93 86 -106 0 -13 13 -21 28 -18 23 5 23 0 -1 -29 -16 -20 -18 -28 -4 -20 15
9 36 -8 56 -46 17 -34 40 -61 52 -61 11 0 15 -9 8 -20 -7 -11 2 -26 19 -32 17
-7 31 -29 31 -50 0 -21 10 -38 21 -38 12 0 16 -9 9 -20 -7 -11 -2 -20 11 -20
13 0 19 -12 13 -28 -6 -15 1 -50 16 -78 14 -28 21 -56 15 -63 -7 -6 -1 -11 13
-11 15 0 20 -15 13 -38 -7 -21 0 -50 14 -65 15 -15 29 -72 32 -127 13 -263 11
-475 -3 -484 -9 -5 -11 -24 -5 -41 7 -17 -7 -80 -30 -141 -33 -88 -36 -114
-15 -127 19 -12 16 -16 -10 -17 -20 0 -31 -8 -25 -19 6 -10 3 -24 -8 -30 -10
-7 -14 -27 -7 -45 8 -21 5 -28 -9 -19 -27 17 -40 -2 -53 -77 -6 -32 -25 -66
-42 -75 -17 -10 -26 -26 -19 -36 6 -11 2 -19 -8 -19 -11 0 -23 -15 -27 -33 -4
-22 -29 -36 -71 -39 -62 -5 -86 17 -46 42 11 6 13 31 4 56 -18 50 -15 118 5
151 8 13 7 23 -2 23 -9 0 -16 243 -16 540 0 297 7 540 16 540 8 0 8 16 -1 35
-8 19 -15 91 -14 160 1 69 -7 125 -16 125 -10 0 -13 8 -7 17 16 26 -67 114
-101 107 -17 -4 -43 4 -58 17 -16 13 -29 15 -29 5 0 -21 -347 -16 -381 4 -10
7 -19 5 -19 -4 0 -14 -811 -19 -840 -6 -5 3 -19 3 -30 0 -61 -15 -170 -17
-170 -3 0 25 -128 15 -157 -12 -14 -14 -35 -20 -47 -13 -27 17 -116 -33 -116
-65 0 -15 -7 -27 -16 -27 -19 0 -11 -309 11 -440 12 -70 17 -28 25 190 l10
280 937 0 937 0 -2 -1999 c-2 -1099 -5 -2000 -8 -2002 -2 -2 -422 -7 -934 -11
l-930 -8 -6 65 c-6 63 -23 80 -50 52 -8 -7 -2 -27 11 -44 18 -21 18 -26 1 -17
-13 8 -29 6 -36 -6 -7 -11 2 -20 19 -20 17 0 31 -13 31 -29 0 -36 61 -71 125
-71 27 0 55 -7 63 -15 21 -20 112 -21 99 -1 -5 9 11 12 37 8 25 -5 53 -10 62
-11 23 -2 -4 -41 -28 -41 -11 0 -14 10 -6 23 8 14 5 18 -8 10 -11 -8 -17 -37
-12 -65 6 -32 2 -46 -11 -38 -12 7 -21 -2 -21 -20 0 -18 -8 -27 -19 -21 -10 7
-27 -3 -37 -20 -9 -18 -24 -32 -31 -31 -14 3 -173 -99 -173 -110 0 -4 16 -2
35 4 33 10 33 10 0 -12 -19 -12 -46 -16 -58 -8 -14 9 -18 5 -9 -9 13 -20 -10
-28 -61 -21 -7 1 -20 -11 -29 -25 -13 -20 -18 -17 -19 13 -1 22 -7 29 -12 15
-6 -14 -23 -25 -39 -25 -16 0 -34 -13 -41 -30 -6 -16 -19 -25 -29 -19 -10 6
-18 2 -18 -10 0 -30 -100 -26 -101 4 0 14 -11 7 -25 -16 -13 -23 -39 -38 -59
-33 -19 4 -35 -1 -35 -10 0 -10 -16 -18 -35 -19 -54 -2 -94 -15 -110 -37 -9
-12 -15 -9 -15 7 0 21 -7 22 -27 6 -15 -13 -32 -18 -38 -12 -6 6 -45 -7 -88
-30 l-76 -41 63 0 c414 0 894 202 1229 517 l179 169 644 2 644 2 5 996 5 996
129 158 c1023 1257 -12 3042 -1679 2896z"/>
<path d="M4029 18191 c-37 -56 -16 -115 53 -152 61 -33 138 24 138 101 0 102
-134 138 -191 51z m147 -43 c3 -23 -8 -53 -25 -67 -61 -51 -141 29 -90 90 35
43 108 29 115 -23z"/>
<path d="M4350 18045 c-127 -29 -195 -206 -115 -303 35 -42 177 -98 154 -61
-6 11 -23 19 -37 19 -79 0 -139 153 -93 239 82 151 301 70 301 -113 1 -56 6
-68 20 -46 78 121 -78 300 -230 265z"/>
<path d="M7732 17922 c-72 -79 16 -211 108 -162 61 33 81 85 53 141 -31 64
-113 74 -161 21z m139 -44 c18 -56 -33 -107 -89 -89 -41 13 -59 87 -29 118 31
30 105 12 118 -29z"/>
<path d="M4440 17789 c0 -17 13 -56 28 -86 45 -87 59 -197 33 -261 l-24 -57
-539 -15 -539 -15 11 -265 c6 -168 21 -293 40 -337 37 -88 40 -352 5 -399 -16
-22 -23 -82 -18 -162 l6 -127 130 -108 130 -107 -100 -6 -100 -6 -9 -194 c-8
-191 -20 -259 -95 -534 -93 -340 -88 -481 24 -593 l77 -77 0 -217 0 -216 148
-134 149 -133 186 0 c216 1 258 15 198 69 -22 20 -53 31 -70 24 -17 -6 -31 -4
-31 6 0 29 -207 -3 -250 -39 -41 -34 -50 21 -50 320 l0 278 -75 6 c-71 6 -75
9 -72 72 4 82 60 149 110 133 35 -11 37 12 37 470 l0 483 -84 79 c-100 96 -86
139 34 99 67 -22 73 -30 63 -80 -15 -77 0 -80 354 -77 166 1 283 6 258 11 -25
5 -41 16 -36 25 6 9 -16 27 -49 41 -71 30 -76 66 -16 109 63 44 73 40 80 -34
l6 -65 140 0 140 0 6 75 c4 41 13 75 21 75 18 0 103 -77 103 -93 0 -29 -128
-125 -176 -133 -30 -4 108 -9 306 -11 547 -5 522 5 477 -191 -7 -33 -5 -53 5
-47 11 7 16 -21 12 -63 -5 -51 3 -86 25 -108 41 -41 71 -216 71 -410 0 -81 14
-193 32 -250 100 -324 170 -551 188 -603 15 -45 12 -66 -10 -91 -77 -85 21
-317 125 -296 48 10 34 77 -26 123 -79 59 -53 153 43 153 63 0 95 -49 81 -125
-14 -77 10 -128 49 -103 15 9 55 14 90 11 229 -20 258 313 30 349 -122 19 -86
68 50 68 59 0 108 8 108 18 0 10 6 33 13 51 10 29 -4 32 -115 27 l-128 -6 -17
-83 c-20 -91 10 -138 132 -214 61 -38 76 -126 25 -146 -60 -23 -130 11 -130
62 0 78 -41 146 -103 172 -31 13 -57 34 -57 46 0 13 -14 50 -32 83 -17 33 -47
128 -68 210 -20 83 -61 240 -91 350 -30 110 -61 232 -70 270 -9 39 -39 151
-67 250 -36 123 -52 228 -52 332 l0 153 -148 133 -148 132 -357 -1 c-196 0
-528 -9 -736 -19 -209 -10 -381 -16 -383 -14 -2 2 -16 292 -30 644 l-25 640
-92 86 -91 86 96 -8 c115 -11 121 -16 121 -97 l0 -63 361 13 c199 7 567 19
817 26 l455 13 -13 -68 c-7 -37 -23 -75 -35 -83 -21 -14 -2 -23 34 -17 10 2
10 -8 2 -21 -10 -16 -4 -20 18 -11 53 20 67 -36 81 -304 14 -268 21 -293 65
-233 61 84 27 441 -49 511 -22 20 -33 64 -34 137 -1 84 -10 114 -43 140 -23
18 -90 75 -150 127 l-108 94 -299 -15 c-347 -18 -320 -23 -281 53 29 56 28 69
-8 175 -22 64 -40 132 -40 152 0 20 -13 37 -30 37 -16 0 -30 -14 -30 -31z
m120 -539 c0 -23 -22 -29 -95 -27 -81 3 -85 5 -25 12 39 4 79 16 89 26 26 26
31 24 31 -11z m-911 -690 c1 -292 -32 -382 -109 -290 -20 25 -19 30 7 30 108
0 116 395 10 529 -34 44 -37 57 -15 84 53 63 106 -112 107 -353z m-24 -1321
c60 -27 15 -232 -44 -207 -17 7 -51 18 -76 23 -76 16 -56 124 24 127 l61 2
-66 19 c-36 10 -60 27 -54 38 16 25 97 24 155 -2z m-48 -237 c23 -14 18 -142
-6 -142 -64 0 -145 65 -136 109 10 53 83 70 142 33z m-5 -167 c36 -37 -23 -91
-89 -81 -90 14 -84 9 -69 64 11 42 121 54 158 17z m-7 -140 c5 -14 -21 -45
-58 -69 -37 -24 -67 -42 -67 -40 0 2 -8 33 -19 69 l-18 65 76 0 c43 0 81 -11
86 -25z m95 -69 c0 -5 -13 -34 -28 -63 -16 -29 -34 -69 -40 -88 -9 -31 -16
-30 -61 13 -66 61 -64 85 12 131 54 33 117 37 117 7z"/>
<path d="M2998 17760 c-258 -44 -554 -149 -775 -274 l-133 -76 -370 -10 -370
-10 -11 -450 c-12 -439 -13 -454 -74 -621 -146 -404 -136 -923 26 -1353 49
-131 49 -132 49 -878 l0 -747 45 -11 c25 -6 344 -9 709 -6 l663 6 11 -55 c24
-121 181 -114 206 8 10 53 18 60 65 50 85 -17 218 8 225 42 4 20 77 -36 212
-162 235 -220 287 -256 278 -194 -6 41 -242 281 -276 281 -10 0 -18 8 -18 18
0 10 -22 39 -50 65 -27 26 -49 58 -50 70 0 13 -9 27 -21 31 -12 4 -25 135 -31
336 -16 479 -22 630 -27 630 -2 0 -8 22 -13 49 -23 124 -28 26 -28 -536 l0
-603 -929 0 -929 0 -13 69 c-15 79 -2 3905 14 3920 5 6 429 13 941 16 702 4
928 11 922 28 -13 35 -42 41 -181 39 -69 -1 -125 4 -125 10 0 7 -20 11 -45 9
-25 -2 -62 5 -82 15 -21 10 -33 10 -27 1 5 -9 -60 -17 -146 -17 -86 0 -146 7
-133 15 14 8 4 15 -24 15 -40 0 -44 5 -23 30 14 17 42 30 62 30 21 0 38 9 38
19 0 11 15 14 33 7 23 -9 29 -5 18 12 -9 15 -5 23 12 20 41 -8 197 24 197 40
0 7 31 14 69 15 39 1 86 9 105 18 20 9 68 17 107 19 39 1 79 7 90 12 15 8 357
7 435 0 9 -1 10 -13 1 -27 -8 -14 1 -12 22 5 43 35 41 35 92 -24 25 -29 38
-35 34 -16 -3 18 7 27 25 23 16 -3 48 -7 70 -8 22 -1 49 -9 61 -18 11 -8 38
-15 60 -15 61 -1 177 -25 199 -43 19 -14 114 -27 160 -21 72 9 -341 149 -570
193 -159 31 -621 36 -782 9z m-68 -4468 c0 -59 -62 -89 -102 -48 -48 48 -21
100 47 92 38 -4 55 -17 55 -44z"/>
<path d="M3240 16150 c0 -636 4 -1153 9 -1148 20 20 39 384 38 708 -1 438 -29
1577 -39 1588 -5 5 -8 -512 -8 -1148z"/>
<path d="M1522 17172 c-16 -18 -21 -105 -18 -255 l6 -227 790 0 790 0 6 227
c7 313 92 283 -796 283 -621 0 -759 -5 -778 -28z m1554 -237 l-6 -225 -770 0
-770 0 -6 225 -5 225 781 0 781 0 -5 -225z"/>
<path d="M1613 17107 c-21 -22 -15 -367 7 -367 12 0 20 77 20 190 0 190 -2
202 -27 177z"/>
<path d="M1700 16930 c0 -123 7 -188 20 -180 11 7 20 88 20 180 0 92 -9 173
-20 180 -13 8 -20 -57 -20 -180z"/>
<path d="M1780 16920 c0 -107 8 -180 20 -180 12 0 20 73 20 180 0 107 -8 180
-20 180 -12 0 -20 -73 -20 -180z"/>
<path d="M2040 16800 c0 -13 173 -20 480 -20 307 0 480 7 480 20 0 13 -173 20
-480 20 -307 0 -480 -7 -480 -20z"/>
<path d="M5853 17187 c-7 -8 -13 -125 -13 -261 l0 -246 785 5 785 5 6 238 c4
178 -1 243 -20 255 -31 20 -1523 23 -1543 4z m1547 -257 l0 -230 -770 0 -770
0 0 230 0 230 770 0 770 0 0 -230z"/>
<path d="M6113 17107 c-21 -22 -15 -367 7 -367 12 0 20 77 20 190 0 190 -2
202 -27 177z"/>
<path d="M5940 16920 c0 -107 8 -180 20 -180 12 0 20 73 20 180 0 107 -8 180
-20 180 -12 0 -20 -73 -20 -180z"/>
<path d="M6020 16920 c0 -107 8 -180 20 -180 12 0 20 73 20 180 0 107 -8 180
-20 180 -12 0 -20 -73 -20 -180z"/>
<path d="M6360 16800 c0 -13 177 -20 491 -20 323 0 487 7 479 20 -8 12 -194
20 -491 20 -306 0 -479 -7 -479 -20z"/>
<path d="M4480 17058 c-82 -7 -221 -14 -307 -15 -286 -5 -336 -56 -334 -340 2
-323 38 -467 121 -493 22 -7 40 -22 40 -33 0 -12 14 -16 30 -10 17 7 30 5 30
-3 0 -8 76 -11 170 -7 112 4 170 -1 170 -15 0 -12 10 -22 23 -22 13 0 18 6 11
13 -56 56 336 120 464 76 49 -17 103 -25 120 -18 18 7 58 16 90 20 31 4 80 22
107 40 35 23 45 25 34 6 -8 -15 2 -9 24 13 35 35 50 77 49 140 0 485 -21 593
-121 636 -57 24 -489 31 -721 12z m698 -75 c53 -98 69 -548 22 -623 -31 -51
-967 -106 -1159 -67 -85 17 -101 64 -115 347 -18 347 -37 334 523 360 589 27
707 24 729 -17z"/>
<path d="M4791 16836 c-69 -99 -20 -316 71 -316 71 0 115 247 48 273 -16 6
-24 20 -17 31 11 19 -25 55 -57 56 -7 0 -28 -20 -45 -44z"/>
<path d="M4268 16790 c-81 -124 25 -366 119 -272 47 47 59 243 17 257 -13 5
-24 21 -24 37 0 47 -77 32 -112 -22z"/>
<path d="M3302 16735 c-1 -38 8 -55 30 -55 24 0 29 -12 21 -45 -7 -25 -13 -61
-13 -81 0 -20 -9 -31 -20 -24 -11 7 -20 -5 -20 -26 0 -30 11 -36 50 -29 52 10
65 34 29 56 -13 8 -16 47 -8 101 11 72 8 88 -17 88 -17 0 -35 16 -40 35 -6 22
-10 14 -12 -20z"/>
<path d="M3414 16680 c8 -38 14 -115 11 -170 -3 -80 0 -93 18 -63 24 42 7 226
-25 273 -14 21 -16 10 -4 -40z"/>
<path d="M1514 16567 c-20 -19 -17 -452 3 -482 12 -20 185 -24 794 -20 l779 5
0 250 0 250 -781 5 c-430 3 -788 -1 -795 -8z m1556 -247 l0 -230 -770 0 -770
0 -6 209 c-3 114 -1 220 5 235 8 21 153 25 775 21 l766 -5 0 -230z"/>
<path d="M1613 16487 c-21 -22 -15 -343 7 -357 13 -8 20 56 20 179 0 191 -2
203 -27 178z"/>
<path d="M1700 16310 c0 -123 7 -188 20 -180 11 7 20 88 20 180 0 92 -9 173
-20 180 -13 8 -20 -57 -20 -180z"/>
<path d="M1780 16310 c0 -113 8 -190 20 -190 12 0 20 77 20 190 0 113 -8 190
-20 190 -12 0 -20 -77 -20 -190z"/>
<path d="M2040 16180 c0 -13 173 -20 480 -20 307 0 480 7 480 20 0 13 -173 20
-480 20 -307 0 -480 -7 -480 -20z"/>
<path d="M5849 16554 c-6 -15 -8 -129 -5 -255 l6 -229 780 0 780 0 0 250 0
250 -776 5 c-628 4 -777 0 -785 -21z m1541 -234 l0 -230 -765 -5 -765 -5 0
240 0 240 765 -5 765 -5 0 -230z"/>
<path d="M5940 16310 c0 -123 7 -188 20 -180 11 7 20 88 20 180 0 92 -9 173
-20 180 -13 8 -20 -57 -20 -180z"/>
<path d="M6020 16310 c0 -113 8 -190 20 -190 12 0 20 77 20 190 0 113 -8 190
-20 190 -12 0 -20 -77 -20 -190z"/>
<path d="M6113 16487 c-21 -22 -15 -343 7 -357 13 -8 20 56 20 179 0 191 -2
203 -27 178z"/>
<path d="M6360 16180 c0 -13 173 -20 479 -20 297 0 483 8 491 20 8 13 -156 20
-479 20 -314 0 -491 -7 -491 -20z"/>
<path d="M5656 16385 c-3 -49 -9 -222 -20 -595 -5 -155 20 -633 34 -646 5 -6
10 283 10 643 0 558 -10 804 -24 598z"/>
<path d="M5394 16331 c-16 -16 -34 -24 -40 -19 -5 6 -9 -6 -7 -26 2 -20 -7
-34 -20 -32 -15 3 -18 -16 -7 -64 8 -37 10 -74 3 -82 -7 -8 -2 -8 12 0 29 17
35 -39 6 -57 -11 -7 -14 -25 -8 -42 7 -17 -1 -29 -19 -29 -16 0 -33 -22 -39
-48 -8 -46 -3 -49 101 -55 l109 -7 -12 160 c-7 88 -13 198 -13 245 0 89 -18
104 -66 56z"/>
<path d="M4681 16106 c-56 -71 -45 -110 37 -131 105 -27 144 21 93 115 -45 84
-74 88 -130 16z"/>
<path d="M1760 15960 l-250 -10 -6 -227 c-3 -150 2 -237 18 -255 31 -38 1516
-42 1554 -4 37 37 33 474 -4 488 -38 15 -1001 20 -1312 8z m1316 -255 l5 -225
-780 0 -781 0 0 217 c0 119 6 222 14 230 7 7 356 11 775 8 l761 -5 6 -225z"/>
<path d="M1600 15700 c0 -107 8 -180 20 -180 12 0 20 73 20 180 0 107 -8 180
-20 180 -12 0 -20 -73 -20 -180z"/>
<path d="M1700 15700 c0 -107 8 -180 20 -180 12 0 20 73 20 180 0 107 -8 180
-20 180 -12 0 -20 -73 -20 -180z"/>
<path d="M1780 15700 c0 -107 8 -180 20 -180 12 0 20 73 20 180 0 107 -8 180
-20 180 -12 0 -20 -73 -20 -180z"/>
<path d="M2040 15569 c0 -25 72 -29 480 -29 413 0 480 4 480 30 0 26 -67 30
-480 29 -408 0 -480 -5 -480 -30z"/>
<path d="M6244 15965 l-405 -6 5 -254 6 -255 740 -6 c933 -7 832 -38 826 262
l-6 244 -380 10 c-209 6 -563 8 -786 5z m1156 -255 l0 -230 -770 0 -770 0 0
230 0 230 770 0 770 0 0 -230z"/>
<path d="M5940 15700 c0 -107 8 -180 20 -180 12 0 20 73 20 180 0 107 -8 180
-20 180 -12 0 -20 -73 -20 -180z"/>
<path d="M6020 15700 c0 -107 8 -180 20 -180 12 0 20 73 20 180 0 107 -8 180
-20 180 -12 0 -20 -73 -20 -180z"/>
<path d="M6100 15700 c0 -107 8 -180 20 -180 12 0 20 73 20 180 0 107 -8 180
-20 180 -12 0 -20 -73 -20 -180z"/>
<path d="M6370 15580 c-7 -11 -1 -25 14 -31 51 -19 936 0 941 21 7 28 -938 38
-955 10z"/>
<path d="M1825 15364 c-358 -6 -330 21 -321 -304 l6 -210 790 0 790 0 5 230
c3 127 -2 241 -10 254 -17 25 -671 41 -1260 30z m1245 -264 l0 -230 -770 0
-770 0 -6 209 c-3 114 -1 220 5 235 8 21 153 25 775 21 l766 -5 0 -230z"/>
<path d="M1613 15267 c-21 -22 -15 -343 7 -357 13 -8 20 56 20 179 0 191 -2
203 -27 178z"/>
<path d="M1700 15090 c0 -123 7 -188 20 -180 11 7 20 88 20 180 0 92 -9 173
-20 180 -13 8 -20 -57 -20 -180z"/>
<path d="M1780 15090 c0 -113 8 -190 20 -190 12 0 20 77 20 190 0 113 -8 190
-20 190 -12 0 -20 -77 -20 -190z"/>
<path d="M2040 14960 c0 -13 173 -20 480 -20 307 0 480 7 480 20 0 13 -173 20
-480 20 -307 0 -480 -7 -480 -20z"/>
<path d="M4110 15344 c-44 -4 -86 -18 -94 -30 -21 -32 -20 -694 0 -694 8 0 13
144 11 321 -3 176 0 334 6 350 10 24 105 29 617 29 l605 0 9 -57 c7 -46 5
-1018 -2 -1228 l-2 -54 -355 -6 -355 -6 365 -4 c363 -5 364 -5 375 40 6 25 9
333 6 685 l-6 640 -550 10 c-302 6 -586 7 -630 4z"/>
<path d="M5849 15334 c-6 -15 -8 -129 -5 -255 l6 -229 780 0 780 0 0 250 0
250 -776 5 c-628 4 -777 0 -785 -21z m1547 -239 l5 -235 -770 0 -771 0 0 240
0 240 765 -5 765 -5 6 -235z"/>
<path d="M5940 15090 c0 -123 7 -188 20 -180 11 7 20 88 20 180 0 92 -9 173
-20 180 -13 8 -20 -57 -20 -180z"/>
<path d="M6020 15090 c0 -113 8 -190 20 -190 12 0 20 77 20 190 0 113 -8 190
-20 190 -12 0 -20 -77 -20 -190z"/>
<path d="M6113 15267 c-21 -22 -15 -343 7 -357 13 -8 20 56 20 179 0 191 -2
203 -27 178z"/>
<path d="M6360 14960 c0 -13 177 -20 490 -20 313 0 490 7 490 20 0 13 -177 20
-490 20 -313 0 -490 -7 -490 -20z"/>
<path d="M4220 15130 c0 -42 9 -50 60 -50 51 0 60 8 60 50 0 42 -9 50 -60 50
-51 0 -60 -8 -60 -50z"/>
<path d="M4460 15130 c0 -42 9 -50 60 -50 51 0 60 8 60 50 0 42 -9 50 -60 50
-51 0 -60 -8 -60 -50z"/>
<path d="M4716 15170 c-6 -7 -7 -30 -1 -52 14 -56 115 -45 115 12 0 39 -85 69
-114 40z"/>
<path d="M4960 15131 c0 -49 -70 -119 -142 -142 -21 -6 -57 -47 -78 -90 -49
-96 -49 -99 0 -99 22 0 40 13 40 28 0 72 116 132 234 119 89 -10 109 -7 101
15 -5 16 10 39 33 53 41 25 41 26 -6 20 -64 -7 -75 32 -18 62 42 21 43 22 3
13 -31 -8 -45 0 -53 29 -16 64 -114 57 -114 -8z"/>
<path d="M4598 15002 c-36 -37 -58 -80 -58 -115 -1 -44 -15 -64 -64 -87 -83
-39 -88 -63 -31 -130 l48 -55 73 64 c40 36 85 60 99 54 20 -8 20 -10 0 -11
-14 -1 -25 -19 -25 -41 0 -105 -369 -1081 -531 -1403 -403 -803 -668 -918
-1819 -788 -700 79 -1058 64 -1430 -60 -245 -82 -227 -145 20 -70 383 117 727
132 1362 57 673 -79 1080 -59 1324 66 321 164 643 703 954 1595 63 181 119
316 126 300 6 -15 12 8 14 52 4 121 61 241 140 294 65 44 121 141 96 166 -6 6
-42 -20 -81 -59 -82 -82 -151 -76 -183 15 -23 63 4 101 102 147 50 24 62 37
42 50 -51 32 -120 16 -178 -41z"/>
<path d="M4226 14688 c-16 -35 -18 -67 -5 -101 11 -27 19 -141 19 -252 0 -111
4 -198 9 -193 9 9 13 598 4 598 -2 0 -14 -23 -27 -52z"/>
<path d="M880 14656 c-191 -71 -185 -319 8 -367 124 -31 252 60 252 179 0 127
-144 231 -260 188z m117 -38 c170 -59 119 -298 -63 -298 -172 0 -215 246 -54
306 44 16 49 16 117 -8z"/>
<path d="M4088 14557 c10 -88 8 -93 -44 -103 -76 -15 -90 1 -78 89 6 42 3 77
-7 77 -9 0 -20 -43 -23 -95 -6 -88 -10 -95 -64 -102 l-57 -6 10 105 c9 95 7
100 -17 56 -26 -47 -38 -162 -18 -181 5 -5 55 -4 110 3 l100 13 0 -195 c0
-269 -7 -259 187 -254 l163 4 -149 7 c-181 8 -174 -2 -172 248 l1 203 80 28
c95 32 134 65 62 51 -44 -8 -52 -2 -52 38 0 26 -10 61 -22 77 -16 22 -18 6
-10 -63z"/>
<path d="M4960 14540 c-25 -17 -23 -22 14 -32 41 -11 45 -26 51 -195 l7 -183
4 183 c4 164 8 183 44 193 22 6 40 20 40 32 0 27 -119 28 -160 2z"/>
<path d="M5458 14438 c-26 -47 -40 -166 -38 -335 0 -48 -12 -114 -28 -146 -19
-38 -21 -53 -6 -44 16 9 16 4 -1 -14 -26 -28 -81 -34 -409 -41 -107 -3 -190
-11 -185 -19 5 -8 -6 -26 -23 -41 -55 -45 16 -55 397 -57 l355 -1 0 345 c-1
359 -15 439 -62 353z"/>
<path d="M2126 14096 c-168 -81 -129 -495 48 -512 174 -17 251 334 106 479
-61 61 -85 66 -154 33z m93 -55 c27 -49 27 -322 1 -392 -42 -110 -80 -24 -80
182 0 240 26 309 79 210z"/>
<path d="M2487 14091 c-103 -73 -121 -361 -28 -460 96 -102 218 -49 262 112
60 224 -90 448 -234 348z m121 -134 c25 -155 0 -341 -45 -333 -33 7 -61 359
-34 431 22 58 62 9 79 -98z"/>
<path d="M6434 14080 c-162 -128 -106 -490 76 -490 97 0 152 68 165 206 15
160 -68 324 -165 324 -14 0 -48 -18 -76 -40z m114 -32 c49 -127 -4 -495 -61
-418 -53 73 -34 450 23 450 14 0 31 -14 38 -32z"/>
<path d="M6826 14096 c-168 -81 -127 -495 51 -512 177 -18 252 330 103 479
-61 61 -85 66 -154 33z m93 -55 c27 -49 27 -322 1 -392 -42 -110 -80 -24 -80
182 0 240 26 309 79 210z"/>
<path d="M1693 13980 c-18 -66 -33 -123 -33 -128 0 -5 35 -14 78 -22 136 -23
203 -124 117 -177 -26 -17 -48 -14 -93 12 -82 49 -122 45 -122 -13 0 -89 162
-102 258 -20 124 104 68 274 -98 300 -116 19 -88 57 47 64 62 3 113 14 113 23
0 10 5 32 12 49 10 27 -7 32 -117 32 l-128 0 -34 -120z"/>
<path d="M4575 13744 l-115 -6 0 -99 c0 -110 2 -112 70 -67 44 29 52 29 94 0
25 -18 62 -32 82 -32 21 0 34 -11 29 -25 -6 -17 -42 -23 -111 -18 -189 12
-188 13 -184 -254 5 -288 6 -282 -36 -231 -41 48 -30 403 14 456 19 23 19 38
-2 70 -41 66 -58 49 -55 -53 2 -52 -6 -126 -19 -165 -50 -157 -14 -505 60
-572 69 -62 264 -64 325 -3 111 111 125 740 18 810 -42 28 -48 44 -39 109 12
90 15 88 -131 80z m62 -582 c8 -134 -9 -232 -49 -271 -53 -54 -61 -35 -44 104
9 74 11 169 4 212 -11 72 -9 76 35 70 42 -6 48 -19 54 -115z"/>
<path d="M5751 12702 l-50 -99 44 -15 c167 -56 229 24 116 148 l-60 65 -50
-99z"/>
</g>
</svg>
